<svg width="297" height="108" viewBox="0 0 297 108" xmlns="http://www.w3.org/2000/svg" xmlns:sketch="http://www.bohemiancoding.com/sketch/ns"><title>Mewvy 2</title><desc>Created with Sketch.</desc><path d="M65.25 1.6c1.4-.533 3.367-.8 5.9-.8 2.533 0 4.8.167 6.8.5-2.067 15.333-3.683 29.217-4.85 41.65-1.167 12.433-1.8 18.983-1.9 19.65-.1.667-.15 1.267-.15 1.8.067 1.733.9 2.6 2.5 2.6 4 0 9.567-4.6 16.7-13.8 1.267 3.533 2 5.9 2.2 7.1-3.2 5.067-7.05 9.217-11.55 12.45-4.5 3.233-8.75 4.85-12.75 4.85s-6.767-1.033-8.3-3.1c-1.533-2.067-2.3-4.367-2.3-6.9 0-.6.083-1.767.25-3.5.167-1.733 1.483-12.533 3.95-32.4l-16.4 37.9h-8.5l-4.9-37.3-7 31c-1.133 4.933-2.983 8.567-5.55 10.9-2.567 2.333-5.383 3.5-8.45 3.5-3.067 0-5.567-.9-7.5-2.7-2.067-1.933-3.1-4.667-3.1-8.2 0-7.067 5.467-13.1 16.4-18.1 5.933-28.467 9.133-44.233 9.6-47.3 1.6-.4 3.75-.6 6.45-.6s4.55.067 5.55.2h.7l6.2 46.5 20-45.4v-.5zm-57.8 63.5c0 2.133.833 3.2 2.5 3.2 1.133 0 2.067-.9 2.8-2.7.933-2.2 1.7-5.1 2.3-8.7-5.067 2.867-7.6 5.6-7.6 8.2zm163.1-4c0 4.8 2.033 7.2 6.1 7.2h.3c1.867 0 3.533-1 5-3s2.567-4.5 3.3-7.5c1.6-6.133 2.4-11.7 2.4-16.7h-.9c-2.8 0-4.967-.633-6.5-1.9-1.6-1.467-2.4-3.233-2.4-5.3 0-2.067.633-3.733 1.9-5 1.533-1.4 3.433-2.1 5.7-2.1 4.933 0 8.267 2.533 10 7.6 4.667-1.133 9.6-2.7 14.8-4.7v5.7c-4.933 1.867-9.533 3.3-13.8 4.3.067.533.1 1.3.1 2.3-.267 13.8-3.5 23.8-9.7 30-3.667 3.667-8.417 5.5-14.25 5.5s-10.183-2.467-13.05-7.4c-3.267 5-8.267 7.5-15 7.5-4 0-7.283-1.417-9.85-4.25-2.567-2.833-3.85-6.183-3.85-10.05 0-.667.033-1.467.1-2.4 1.4-11.6 2.567-21.867 3.5-30.8 2.4-.8 4.5-1.2 6.3-1.2 4.733 0 7.1 1.633 7.1 4.9 0 1.267-.5 5.633-1.5 13.1-1.267 9.4-1.9 14.683-1.9 15.85 0 1.167.45 2.317 1.35 3.45.9 1.133 2.2 1.7 3.9 1.7 1.7 0 3.217-.767 4.55-2.3 1.333-1.533 2.3-3.4 2.9-5.6l3.5-29.9c2.133-.8 4.4-1.2 6.8-1.2 4.333 0 6.5 1.633 6.5 4.9 0 1.2-.467 5.1-1.4 11.7-1.333 9.333-2 14.533-2 15.6zm13-27.2c0 1.133.967 1.7 2.9 1.7h.6c-.467-1.8-1.167-2.7-2.1-2.7s-1.4.333-1.4 1zm46.65 39.5c-3.9 3.433-8.35 5.15-13.35 5.15s-8.75-1.65-11.25-4.95c-2.5-3.3-3.75-7.083-3.75-11.35 0-.867.033-1.733.1-2.6l3.4-28.5c2.133-.8 4.4-1.2 6.8-1.2 4.4 0 6.6 1.633 6.6 4.9 0 .133-.55 4.583-1.65 13.35-1.1 8.767-1.65 13.85-1.65 15.25 0 3.8 1.833 5.7 5.5 5.7 3.133 0 5.767-1.767 7.9-5.3 3.733-6.4 5.7-13.633 5.9-21.7h-.9c-2.8 0-4.933-.633-6.4-1.9-1.667-1.467-2.5-3.233-2.5-5.3 0-2.067.633-3.733 1.9-5 1.533-1.333 3.367-2 5.5-2 5.067 0 8.233 2.633 9.5 7.9 2-.267 3.433-.533 4.3-.8v5.7l-3.7.6v1.7c-.067 6-1.15 11.7-3.25 17.1-2.1 5.4-5.1 9.817-9 13.25zm.95-39.5c0 1.133.967 1.7 2.9 1.7h.6c-.467-1.8-1.167-2.7-2.1-2.7s-1.4.333-1.4 1zm29.5 73.3c-3.8 0-7.067-1.15-9.8-3.45-2.733-2.3-4.1-5.65-4.1-10.05 0-5.4 2.733-10.667 8.2-15.8-3.867-.333-6.967-1.6-9.3-3.8-2.333-2.2-3.5-5.3-3.5-9.3 0-1.867.233-4.667.7-8.4.467-3.733.967-7.767 1.5-12.1.533-4.333 1.1-8.933 1.7-13.8 2.067-.733 3.967-1.1 5.7-1.1s3.033.067 3.9.2 1.7.633 2.5 1.5 1.2 2.1 1.2 3.7l-3.3 25.5c-.133 1.067-.2 1.8-.2 2.2 0 3.933 1.8 5.9 5.4 5.9 3.267 0 5.933-1.533 8-4.6.2-1.533.7-5.95 1.5-13.25s1.467-12.983 2-17.05c.6-1.267 1.85-2.267 3.75-3 1.9-.733 3.45-1.1 4.65-1.1 2.133 0 4.067.267 5.8.8l-4.7 36.9c7.8 1.4 12.467 6.767 14 16.1-.267 1.267-1.533 3.267-3.8 6-1.333-8.333-5-13.4-11-15.2l-1.6 12.5c-.733 6-2.633 10.95-5.7 14.85-3.067 3.9-7.567 5.85-13.5 5.85zm-.5-11c1.067 1.067 2.483 1.6 4.25 1.6s3.117-.733 4.05-2.2c.933-1.467 1.667-4.4 2.2-8.8l1.3-11c-8.733 4.533-13.2 9.7-13.4 15.5 0 2.2.533 3.833 1.6 4.9zm-148.75-46.6c2.033-2.467 3.05-4.85 3.05-7.15 0-2.3-.617-3.867-1.85-4.7-1.233-.833-2.583-1.25-4.05-1.25-3.133 0-5.883 1.75-8.25 5.25s-3.55 7.667-3.55 12.5 1.15 8.433 3.45 10.8c2.3 2.367 5.15 3.55 8.55 3.55 5 0 9.8-1.733 14.4-5.2s8.333-8 11.2-13.6c1.467 1.4 2.8 3.133 4 5.2-2.2 5-6.1 9.9-11.7 14.7-2.8 2.333-6.117 4.233-9.95 5.7-3.833 1.467-7.783 2.2-11.85 2.2-6.667 0-11.933-2.033-15.8-6.1-4.133-4.4-6.2-10.033-6.2-16.9 0-6.867 2.583-12.867 7.75-18 5.167-5.133 11.35-7.7 18.55-7.7 5.133 0 9.3 1.117 12.5 3.35 3.2 2.233 4.833 5.25 4.9 9.05 0 5.133-2.05 9.3-6.15 12.5-4.1 3.2-9.717 5.433-16.85 6.7l-1.4-5.9c4.133-.867 7.217-2.533 9.25-5z" fill="#fff" sketch:type="MSShapeGroup"/></svg>